<svg width="120" height="47" viewBox="0 0 120 47" fill="none" xmlns="http://www.w3.org/2000/svg">
<path d="M110.135 0.000151666H9.53468C9.16798 0.000151666 8.80568 0.000151666 8.43995 0.00248499C8.1338 0.00481831 7.83009 0.0115966 7.521 0.0173016C6.84951 0.0265203 6.17961 0.0954401 5.5171 0.223462C4.85552 0.354271 4.21467 0.600883 3.61622 0.954958C3.0185 1.31203 2.47234 1.776 1.99757 2.33005C1.5203 2.88255 1.12246 3.52115 0.81935 4.22132C0.5154 4.92009 0.30464 5.66888 0.19435 6.44184C0.0830109 7.21383 0.0230984 7.99472 0.01515 8.7775C0.00587 9.1352 0.00489 9.49408 0 9.85183V36.8183C0.00489 37.1806 0.00587 37.5315 0.01515 37.8939C0.0231008 38.6766 0.0830134 39.4575 0.19435 40.2294C0.304336 41.0028 0.515108 41.752 0.81935 42.4511C1.12233 43.149 1.52022 43.785 1.99757 44.3344C2.47054 44.8909 3.01705 45.3552 3.61622 45.7096C4.21467 46.0646 4.85545 46.3127 5.5171 46.4455C6.17972 46.5725 6.84956 46.6414 7.521 46.6517C7.83009 46.6597 8.1338 46.6642 8.43995 46.6642C8.80567 46.6666 9.168 46.6666 9.53468 46.6666H110.135C110.494 46.6666 110.859 46.6666 111.219 46.6642C111.523 46.6642 111.836 46.6597 112.141 46.6517C112.811 46.642 113.479 46.573 114.141 46.4455C114.804 46.3117 115.448 46.0637 116.049 45.7096C116.647 45.355 117.193 44.8907 117.666 44.3344C118.142 43.7828 118.541 43.1473 118.848 42.4511C119.15 41.7515 119.358 41.0024 119.467 40.2294C119.578 39.4573 119.64 38.6767 119.652 37.8939C119.656 37.5315 119.656 37.1806 119.656 36.8183C119.664 36.3945 119.664 35.973 119.664 35.5422V11.1256C119.664 10.6983 119.664 10.2745 119.656 9.85183C119.656 9.49408 119.656 9.1352 119.652 8.77745C119.64 7.9946 119.578 7.21389 119.467 6.4418C119.358 5.66928 119.149 4.92055 118.848 4.22127C118.23 2.81786 117.252 1.67551 116.049 0.954853C115.448 0.601644 114.804 0.355097 114.141 0.223357C113.48 0.0947711 112.811 0.0258273 112.141 0.0171382C111.836 0.0114449 111.523 0.00460831 111.219 0.00233332C110.859 0 110.494 0 110.135 0V0.000151666Z" fill="#A6A6A6"/>
<path d="M8.44487 45.6458C8.14019 45.6458 7.84287 45.6412 7.54058 45.6333C6.91436 45.6238 6.28961 45.5602 5.67144 45.443C5.09503 45.3272 4.53664 45.1118 4.0147 44.8038C3.49754 44.4984 3.02585 44.098 2.6177 43.6178C2.20364 43.1433 1.85891 42.5929 1.59719 41.9885C1.33258 41.3802 1.14945 40.7282 1.05419 40.0552C0.951311 39.332 0.895651 38.6007 0.887687 37.8677C0.881347 37.6216 0.873047 36.8024 0.873047 36.8024V9.85185C0.873047 9.85185 0.881887 9.04521 0.887737 8.80823C0.895363 8.07636 0.950699 7.34623 1.05327 6.62416C1.14871 5.94927 1.33197 5.29535 1.59673 4.68505C1.85749 4.08108 2.2003 3.53032 2.61187 3.05411C3.02297 2.57338 3.49617 2.17086 4.01421 1.86124C4.53495 1.55427 5.09228 1.34035 5.66753 1.22664C6.28773 1.1083 6.91465 1.04432 7.54304 1.03524L8.44536 1.021H111.214L112.127 1.03581C112.75 1.04445 113.371 1.10785 113.985 1.2255C114.566 1.34063 115.13 1.55605 115.656 1.86466C116.694 2.48864 117.539 3.47584 118.071 4.6879C118.332 5.29398 118.512 5.94257 118.607 6.61163C118.71 7.33962 118.768 8.07549 118.78 8.81336C118.783 9.14376 118.783 9.49866 118.783 9.85185C118.791 10.2894 118.791 10.7058 118.791 11.1256V35.5423C118.791 35.9661 118.791 36.3797 118.783 36.7967C118.783 37.1761 118.783 37.5236 118.779 37.8813C118.768 38.606 118.711 39.3288 118.608 40.0437C118.515 40.7216 118.333 41.3787 118.068 41.992C117.805 42.5899 117.462 43.1355 117.053 43.6087C116.644 44.0914 116.172 44.4942 115.653 44.8016C115.128 45.1119 114.566 45.3282 113.985 45.443C113.367 45.5608 112.743 45.6244 112.116 45.6333C111.823 45.6412 111.517 45.6458 111.219 45.6458L110.135 45.6481L8.44487 45.6458Z" fill="black"/>
<path d="M24.769 23.6841C24.7797 22.7103 25.0014 21.7555 25.4135 20.9086C25.8255 20.0616 26.4145 19.35 27.1256 18.84C26.6738 18.0873 26.0779 17.4679 25.385 17.0309C24.6922 16.5939 23.9216 16.3514 23.1344 16.3227C21.4552 16.117 19.8272 17.495 18.9715 17.495C18.0992 17.495 16.7817 16.3431 15.363 16.3772C14.4453 16.4117 13.551 16.7231 12.7671 17.2808C11.9832 17.8385 11.3365 18.6237 10.8901 19.5597C8.95607 23.4662 10.3987 29.2074 12.2513 32.3651C13.1782 33.9114 14.2615 35.6386 15.6789 35.5773C17.066 35.5102 17.584 34.5454 19.2583 34.5454C20.9171 34.5454 21.4031 35.5773 22.8493 35.5384C24.3377 35.5102 25.2754 33.9853 26.1698 32.4244C26.8358 31.3226 27.3483 30.1049 27.6882 28.8164C26.8235 28.3898 26.0856 27.6756 25.5665 26.7629C25.0474 25.8502 24.77 24.7794 24.769 23.6841Z" fill="white"/>
<path d="M22.0376 14.2462C22.8491 13.1096 23.2489 11.6488 23.1521 10.1738C21.9123 10.3258 20.767 11.0171 19.9445 12.11C19.5424 12.644 19.2344 13.2651 19.0381 13.938C18.8419 14.6109 18.7612 15.3223 18.8008 16.0316C19.4209 16.0391 20.0344 15.8822 20.5951 15.573C21.1558 15.2637 21.649 14.8101 22.0376 14.2462Z" fill="white"/>
<path d="M42.3022 31.6629H37.5688L36.4321 35.5788H34.4272L38.9106 21.0911H40.9937L45.4771 35.5788H43.438L42.3022 31.6629ZM38.0591 29.8559H41.8111L39.9615 23.5008H39.9097L38.0591 29.8559Z" fill="white"/>
<path d="M55.1597 30.2981C55.1597 33.5805 53.6538 35.6893 51.3814 35.6893C50.8057 35.7245 50.2332 35.5698 49.7294 35.2429C49.2256 34.9161 48.8109 34.4304 48.5327 33.8413H48.4897V39.0731H46.6313V25.0162H48.4302V26.773H48.4644C48.7553 26.1868 49.1771 25.7036 49.6847 25.3747C50.1923 25.0459 50.7669 24.8838 51.3472 24.9056C53.645 24.9056 55.1597 27.0248 55.1597 30.2981ZM53.2495 30.2981C53.2495 28.1596 52.3022 26.7536 50.8569 26.7536C49.437 26.7536 48.4819 28.1892 48.4819 30.2981C48.4819 32.4263 49.437 33.8516 50.8569 33.8516C52.3023 33.8516 53.2495 32.4559 53.2495 30.2981Z" fill="white"/>
<path d="M65.1245 30.2981C65.1245 33.5805 63.6187 35.6893 61.3462 35.6893C60.7706 35.7245 60.1981 35.5698 59.6943 35.2429C59.1905 34.9161 58.7758 34.4304 58.4976 33.8413H58.4546V39.0731H56.5962V25.0161H58.395V26.773H58.4292C58.7201 26.1868 59.1419 25.7036 59.6495 25.3747C60.1571 25.0459 60.7317 24.8838 61.312 24.9056C63.6099 24.9056 65.1245 27.0248 65.1245 30.2981ZM63.2144 30.2981C63.2144 28.1596 62.2671 26.7536 60.8218 26.7536C59.4019 26.7536 58.4468 28.1892 58.4468 30.2981C58.4468 32.4263 59.4019 33.8516 60.8218 33.8516C62.2671 33.8516 63.2144 32.4559 63.2144 30.2981H63.2144Z" fill="white"/>
<path d="M71.7105 31.5422C71.8482 32.9788 73.0445 33.9221 74.6792 33.9221C76.2456 33.9221 77.3726 32.9788 77.3726 31.6834C77.3726 30.5589 76.6929 29.8856 75.0835 29.4241L73.4742 28.9718C71.1939 28.3292 70.1353 27.0851 70.1353 25.0662C70.1353 22.5666 72.0025 20.8496 74.6538 20.8496C77.2778 20.8496 79.0767 22.5666 79.1372 25.0662H77.2612C77.1489 23.6204 76.1245 22.7477 74.6274 22.7477C73.1304 22.7477 72.106 23.6307 72.106 24.9158C72.106 25.9401 72.7603 26.5428 74.3608 27.0042L75.729 27.3961C78.2768 28.099 79.3354 29.2931 79.3354 31.4122C79.3354 34.1226 77.4849 35.8202 74.5415 35.8202C71.7876 35.8202 69.9282 34.1625 69.8081 31.542L71.7105 31.5422Z" fill="white"/>
<path d="M83.3462 22.5166V25.0163H85.0679V26.7332H83.3462V32.5563C83.3462 33.4609 83.6909 33.8824 84.4478 33.8824C84.6521 33.8783 84.8562 33.8615 85.0591 33.8323V35.539C84.7188 35.6131 84.373 35.6467 84.0269 35.6392C82.1939 35.6392 81.479 34.836 81.479 32.7875V26.7332H80.1626V25.0163H81.479V22.5166H83.3462Z" fill="white"/>
<path d="M86.0649 30.2981C86.0649 26.9747 87.7427 24.8864 90.3589 24.8864C92.9839 24.8864 94.6538 26.9747 94.6538 30.2981C94.6538 33.6306 92.9927 35.7099 90.3589 35.7099C87.726 35.7099 86.0649 33.6306 86.0649 30.2981ZM92.7602 30.2981C92.7602 28.0183 91.8647 26.6728 90.3589 26.6728C88.853 26.6728 87.9585 28.0286 87.9585 30.2981C87.9585 32.587 88.853 33.9223 90.3589 33.9223C91.8647 33.9223 92.7602 32.587 92.7602 30.2981H92.7602Z" fill="white"/>
<path d="M96.186 25.0162H97.9585V26.814H98.0015C98.1214 26.2525 98.4034 25.7563 98.8 25.4088C99.1966 25.0612 99.6836 24.8836 100.179 24.9056C100.393 24.9048 100.607 24.9319 100.816 24.9865V27.0145C100.546 26.9182 100.264 26.8739 99.981 26.8835C99.711 26.8707 99.4418 26.9263 99.192 27.0463C98.9422 27.1664 98.7175 27.348 98.5336 27.5789C98.3496 27.8098 98.2106 28.0844 98.1262 28.3838C98.0418 28.6833 98.0139 29.0005 98.0444 29.3137V35.5789H96.186L96.186 25.0162Z" fill="white"/>
<path d="M109.384 32.4764C109.134 34.3939 107.534 35.7098 105.486 35.7098C102.852 35.7098 101.217 33.651 101.217 30.3482C101.217 27.0351 102.861 24.8864 105.408 24.8864C107.913 24.8864 109.488 26.8938 109.488 30.0964V30.8392H103.093V30.9703C103.064 31.359 103.105 31.7506 103.216 32.1191C103.326 32.4875 103.502 32.8245 103.732 33.1074C103.963 33.3904 104.242 33.6129 104.552 33.7603C104.861 33.9076 105.195 33.9764 105.529 33.9621C105.968 34.0101 106.409 33.8914 106.785 33.6237C107.162 33.3561 107.455 32.9537 107.62 32.4764L109.384 32.4764ZM103.102 29.324H107.628C107.645 28.9744 107.6 28.6247 107.495 28.2966C107.39 27.9685 107.229 27.6692 107.02 27.4175C106.812 27.1658 106.561 26.9671 106.283 26.8338C106.006 26.7005 105.708 26.6356 105.408 26.6432C105.105 26.6411 104.805 26.7089 104.525 26.8428C104.245 26.9766 103.99 27.1739 103.776 27.4231C103.562 27.6723 103.392 27.9686 103.276 28.2949C103.16 28.6211 103.101 28.9709 103.102 29.324V29.324Z" fill="white"/>
<path d="M37.8262 10.1864C38.2158 10.1537 38.6068 10.2224 38.9709 10.3874C39.335 10.5524 39.6632 10.8096 39.9318 11.1405C40.2004 11.4714 40.4027 11.8677 40.5241 12.3009C40.6455 12.734 40.683 13.1932 40.6338 13.6453C40.6338 15.8692 39.6036 17.1476 37.8262 17.1476H35.6709V10.1864H37.8262ZM36.5977 16.1631H37.7227C38.0011 16.1825 38.2797 16.1293 38.5382 16.0072C38.7968 15.8852 39.0287 15.6974 39.2172 15.4576C39.4057 15.2178 39.546 14.9319 39.6279 14.6209C39.7097 14.3098 39.7311 13.9814 39.6905 13.6595C39.7282 13.3389 39.7046 13.0125 39.6215 12.7037C39.5384 12.3949 39.3977 12.1114 39.2097 11.8735C39.0216 11.6356 38.7908 11.4491 38.5337 11.3275C38.2766 11.2059 37.9997 11.1522 37.7227 11.1701H36.5977V16.1631Z" fill="white"/>
<path d="M41.6809 14.5185C41.6526 14.1732 41.6865 13.8249 41.7803 13.4958C41.8742 13.1667 42.0259 12.8642 42.2259 12.6075C42.4258 12.3509 42.6695 12.1458 42.9414 12.0055C43.2132 11.8652 43.5072 11.7927 43.8045 11.7927C44.1017 11.7927 44.3957 11.8652 44.6676 12.0055C44.9394 12.1458 45.1831 12.3509 45.3831 12.6075C45.583 12.8642 45.7348 13.1667 45.8286 13.4958C45.9225 13.8249 45.9563 14.1732 45.928 14.5185C45.9569 14.864 45.9234 15.2128 45.8298 15.5425C45.7362 15.8721 45.5846 16.1752 45.3846 16.4323C45.1846 16.6895 44.9407 16.895 44.6686 17.0356C44.3964 17.1762 44.1021 17.2488 43.8045 17.2488C43.5069 17.2488 43.2125 17.1762 42.9404 17.0356C42.6683 16.895 42.4244 16.6895 42.2244 16.4323C42.0244 16.1752 41.8727 15.8721 41.7791 15.5425C41.6855 15.2128 41.6521 14.864 41.6809 14.5185ZM45.0139 14.5185C45.0139 13.3797 44.5755 12.7138 43.8059 12.7138C43.0335 12.7138 42.5989 13.3797 42.5989 14.5185C42.5989 15.6663 43.0335 16.3271 43.8059 16.3271C44.5755 16.3271 45.0139 15.6617 45.0139 14.5185H45.0139Z" fill="white"/>
<path d="M51.5732 17.1475H50.6514L49.7207 13.2783H49.6504L48.7236 17.1475H47.8105L46.5693 11.894H47.4707L48.2773 15.9027H48.3438L49.2695 11.894H50.1221L51.0479 15.9027H51.1182L51.9209 11.894H52.8096L51.5732 17.1475Z" fill="white"/>
<path d="M53.8535 11.8941H54.709V12.7286H54.7754C54.8881 12.4289 55.0781 12.1776 55.3189 12.0098C55.5598 11.8421 55.8396 11.7661 56.1192 11.7926C56.3383 11.7734 56.5583 11.812 56.7629 11.9054C56.9675 11.9989 57.1514 12.1448 57.3011 12.3325C57.4508 12.5201 57.5624 12.7447 57.6276 12.9895C57.6928 13.2343 57.7099 13.493 57.6778 13.7466V17.1475H56.7891V14.007C56.7891 13.1627 56.4746 12.7429 55.8174 12.7429C55.6686 12.7348 55.5201 12.7643 55.3821 12.8295C55.244 12.8946 55.1197 12.9938 55.0176 13.1202C54.9154 13.2467 54.8379 13.3974 54.7904 13.5621C54.7429 13.7267 54.7264 13.9014 54.7422 14.0742V17.1476H53.8535L53.8535 11.8941Z" fill="white"/>
<path d="M59.0938 9.84326H59.9824V17.1475H59.0938V9.84326Z" fill="white"/>
<path d="M61.218 14.5184C61.1897 14.1731 61.2236 13.8248 61.3175 13.4957C61.4113 13.1666 61.5631 12.864 61.7631 12.6073C61.963 12.3507 62.2068 12.1456 62.4786 12.0053C62.7505 11.865 63.0445 11.7925 63.3418 11.7925C63.6391 11.7925 63.9331 11.865 64.205 12.0053C64.4768 12.1456 64.7206 12.3507 64.9205 12.6073C65.1205 12.864 65.2723 13.1666 65.3661 13.4957C65.46 13.8248 65.4939 14.1731 65.4656 14.5184C65.4944 14.864 65.4609 15.2128 65.3673 15.5424C65.2737 15.8721 65.122 16.1752 64.922 16.4323C64.7219 16.6895 64.478 16.895 64.2059 17.0356C63.9338 17.1762 63.6394 17.2488 63.3418 17.2488C63.0442 17.2488 62.7498 17.1762 62.4777 17.0356C62.2056 16.895 61.9617 16.6895 61.7616 16.4323C61.5616 16.1752 61.4099 15.8721 61.3163 15.5424C61.2227 15.2128 61.1892 14.864 61.218 14.5184ZM64.551 14.5184C64.551 13.3796 64.1125 12.7137 63.343 12.7137C62.5706 12.7137 62.136 13.3796 62.136 14.5184C62.136 15.6663 62.5706 16.3271 63.343 16.3271C64.1125 16.3271 64.551 15.6617 64.551 14.5184H64.551Z" fill="white"/>
<path d="M66.4009 15.6617C66.4009 14.716 67.0044 14.1709 68.0757 14.0934L69.2954 14.0114V13.5579C69.2954 13.003 68.981 12.6897 68.3735 12.6897C67.8774 12.6897 67.5337 12.9022 67.4351 13.2736H66.5747C66.6655 12.3713 67.3931 11.7925 68.4146 11.7925C69.5435 11.7925 70.1802 12.4482 70.1802 13.5579V17.1474H69.3247V16.4091H69.2544C69.1117 16.674 68.9113 16.8898 68.6737 17.0348C68.436 17.1797 68.1697 17.2484 67.9019 17.234C67.7128 17.2569 67.5218 17.2334 67.341 17.1649C67.1602 17.0964 66.9938 16.9845 66.8524 16.8364C66.711 16.6882 66.5977 16.5072 66.52 16.3048C66.4422 16.1025 66.4016 15.8834 66.4009 15.6617ZM69.2954 15.2128V14.7736L68.1958 14.8556C67.5757 14.904 67.2944 15.1501 67.2944 15.6133C67.2944 16.0861 67.646 16.3613 68.1294 16.3613C68.2711 16.378 68.4142 16.3613 68.5502 16.3122C68.6862 16.2631 68.8123 16.1826 68.9211 16.0754C69.0299 15.9683 69.1191 15.8367 69.1834 15.6885C69.2477 15.5403 69.2858 15.3785 69.2954 15.2128Z" fill="white"/>
<path d="M71.3481 14.5185C71.3481 12.8585 72.0796 11.8069 73.2173 11.8069C73.4987 11.7918 73.778 11.8704 74.0225 12.0336C74.267 12.1968 74.4667 12.4379 74.5981 12.7286H74.6646V9.84326H75.5532V17.1475H74.7017V16.3175H74.6314C74.4897 16.6062 74.2831 16.8443 74.0339 17.0058C73.7846 17.1674 73.5022 17.2463 73.2173 17.2341C72.0718 17.2341 71.3481 16.1825 71.3481 14.5185ZM72.2661 14.5185C72.2661 15.6328 72.7163 16.3033 73.4693 16.3033C74.2183 16.3033 74.6812 15.6231 74.6812 14.5231C74.6812 13.4282 74.2134 12.7383 73.4693 12.7383C72.7212 12.7383 72.2661 13.4134 72.2661 14.5185H72.2661Z" fill="white"/>
<path d="M79.2298 14.5185C79.2015 14.1732 79.2353 13.8249 79.3292 13.4958C79.423 13.1667 79.5748 12.8642 79.7747 12.6075C79.9746 12.3509 80.2183 12.1458 80.4902 12.0055C80.762 11.8652 81.056 11.7927 81.3533 11.7927C81.6506 11.7927 81.9446 11.8652 82.2164 12.0055C82.4883 12.1458 82.732 12.3509 82.9319 12.6075C83.1318 12.8642 83.2836 13.1667 83.3774 13.4958C83.4713 13.8249 83.5051 14.1732 83.4768 14.5185C83.5057 14.864 83.4722 15.2128 83.3786 15.5425C83.285 15.8721 83.1334 16.1752 82.9334 16.4323C82.7334 16.6895 82.4895 16.895 82.2174 17.0356C81.9453 17.1762 81.6509 17.2488 81.3533 17.2488C81.0557 17.2488 80.7613 17.1762 80.4892 17.0356C80.2171 16.895 79.9732 16.6895 79.7732 16.4323C79.5732 16.1752 79.4216 15.8721 79.328 15.5425C79.2344 15.2128 79.2009 14.864 79.2298 14.5185ZM82.5628 14.5185C82.5628 13.3797 82.1243 12.7138 81.3548 12.7138C80.5823 12.7138 80.1478 13.3797 80.1478 14.5185C80.1478 15.6663 80.5823 16.3271 81.3548 16.3271C82.1243 16.3271 82.5628 15.6617 82.5628 14.5185Z" fill="white"/>
<path d="M84.6694 11.8941H85.5249V12.7286H85.5913C85.704 12.4289 85.894 12.1776 86.1349 12.0098C86.3757 11.8421 86.6555 11.7661 86.9351 11.7926C87.1542 11.7734 87.3742 11.812 87.5788 11.9054C87.7834 11.9989 87.9673 12.1448 88.117 12.3325C88.2667 12.5201 88.3783 12.7447 88.4435 12.9895C88.5087 13.2343 88.5258 13.493 88.4937 13.7466V17.1475H87.605V14.007C87.605 13.1627 87.2906 12.7429 86.6333 12.7429C86.4846 12.7348 86.3361 12.7643 86.198 12.8295C86.0599 12.8946 85.9356 12.9938 85.8335 13.1202C85.7313 13.2467 85.6539 13.3974 85.6063 13.5621C85.5588 13.7267 85.5424 13.9014 85.5581 14.0742V17.1476H84.6694V11.8941Z" fill="white"/>
<path d="M93.5151 10.5862V11.918H94.4907V12.7913H93.5151V15.4927C93.5151 16.043 93.7095 16.2839 94.1518 16.2839C94.2651 16.2835 94.3783 16.2755 94.4907 16.26V17.1236C94.3311 17.1569 94.1694 17.1746 94.0073 17.1766C93.019 17.1766 92.6255 16.771 92.6255 15.7581V12.7913H91.9106V11.918H92.6255V10.5862H93.5151Z" fill="white"/>
<path d="M95.7046 9.84326H96.5855V12.7383H96.6558C96.7739 12.4357 96.9691 12.1831 97.2148 12.0146C97.4605 11.8462 97.7447 11.7703 98.0288 11.7972C98.2467 11.7834 98.4646 11.8258 98.6669 11.9215C98.8692 12.0173 99.0509 12.1639 99.199 12.3509C99.3471 12.538 99.458 12.7609 99.5238 13.0037C99.5896 13.2465 99.6086 13.5033 99.5796 13.7557V17.1475H98.69V14.0115C98.69 13.1724 98.355 12.7474 97.7271 12.7474C97.5744 12.7328 97.4207 12.7573 97.277 12.8192C97.1332 12.8811 97.0027 12.9789 96.8947 13.1057C96.7867 13.2326 96.7038 13.3854 96.6517 13.5536C96.5997 13.7218 96.5797 13.9012 96.5933 14.0792V17.1474H95.7046L95.7046 9.84326Z" fill="white"/>
<path d="M104.761 15.729C104.641 16.2091 104.379 16.6244 104.022 16.9023C103.666 17.1801 103.237 17.3028 102.81 17.2489C102.514 17.258 102.219 17.1917 101.946 17.0546C101.674 16.9175 101.43 16.7128 101.232 16.4548C101.034 16.1968 100.887 15.8917 100.8 15.5605C100.713 15.2294 100.69 14.8802 100.73 14.5372C100.691 14.1932 100.715 13.8433 100.801 13.5112C100.888 13.179 101.035 12.8725 101.231 12.6122C101.428 12.352 101.671 12.1441 101.942 12.0027C102.214 11.8613 102.509 11.7896 102.806 11.7926C104.059 11.7926 104.815 12.7912 104.815 14.4409V14.8027H101.635V14.8608C101.621 15.0536 101.642 15.2477 101.696 15.4305C101.751 15.6134 101.837 15.7811 101.95 15.9228C102.063 16.0645 102.2 16.1771 102.352 16.2534C102.504 16.3297 102.669 16.368 102.835 16.3658C103.047 16.3956 103.263 16.351 103.453 16.2375C103.644 16.1241 103.802 15.9471 103.906 15.7289L104.761 15.729ZM101.635 14.0359H103.91C103.921 13.8596 103.9 13.6825 103.849 13.516C103.799 13.3495 103.718 13.1973 103.614 13.0691C103.51 12.9409 103.383 12.8397 103.243 12.7718C103.103 12.7039 102.953 12.6709 102.801 12.675C102.648 12.6727 102.495 12.7064 102.353 12.774C102.21 12.8416 102.081 12.9418 101.972 13.0686C101.864 13.1954 101.778 13.3464 101.72 13.5125C101.662 13.6786 101.633 13.8566 101.635 14.0359H101.635Z" fill="white"/>
</svg>
