<svg width="135" height="47" viewBox="0 0 135 47" fill="none" xmlns="http://www.w3.org/2000/svg">
<path d="M130 46.6665H5C2.25 46.6665 0 44.0415 0 40.8332V5.83331C0 2.62499 2.25 0 5 0H130C132.75 0 135 2.62499 135 5.83331V40.8332C135 44.0415 132.75 46.6665 130 46.6665Z" fill="black"/>
<path d="M130 0.93333C132.32 0.93333 134.2 3.12666 134.2 5.83331V40.8332C134.2 43.5398 132.32 45.7332 130 45.7332H5C2.68 45.7332 0.8 43.5398 0.8 40.8332V5.83331C0.8 3.12666 2.68 0.93333 5 0.93333H130ZM130 0H5C2.25 0 0 2.62499 0 5.83331V40.8332C0 44.0415 2.25 46.6665 5 46.6665H130C132.75 46.6665 135 44.0415 135 40.8332V5.83331C135 2.62499 132.75 0 130 0Z" fill="#A6A6A6"/>
<path d="M47.4201 11.9466C47.4201 12.9266 47.1701 13.7083 46.6701 14.28C46.1101 14.9683 45.3701 15.3183 44.4701 15.3183C43.6001 15.3183 42.8701 14.9683 42.2601 14.2683C41.6501 13.5683 41.3501 12.6933 41.3501 11.6666C41.3501 10.6283 41.6501 9.76491 42.2601 9.0649C42.8701 8.3649 43.6001 8.01489 44.4701 8.01489C44.9001 8.01489 45.3101 8.10823 45.7001 8.30656C46.0901 8.5049 46.4001 8.76157 46.6401 9.08824L46.1101 9.70658C45.7101 9.15824 45.1701 8.87823 44.4701 8.87823C43.8401 8.87823 43.2901 9.1349 42.8301 9.65991C42.3701 10.1732 42.1401 10.8499 42.1401 11.6783C42.1401 12.5066 42.3701 13.1833 42.8301 13.6966C43.2901 14.21 43.8401 14.4783 44.4701 14.4783C45.1401 14.4783 45.7001 14.2216 46.1501 13.6966C46.4401 13.3583 46.6101 12.8799 46.6501 12.2733H44.4701V11.4333H47.3801C47.4001 11.6083 47.4201 11.7833 47.4201 11.9466Z" fill="white" stroke="white" stroke-width="0.2" stroke-miterlimit="10"/>
<path d="M52.0303 9.02984H49.3003V11.2465H51.7603V12.0865H49.3003V14.3032H52.0303V15.1665H48.5303V8.1665H52.0303V9.02984Z" fill="white" stroke="white" stroke-width="0.2" stroke-miterlimit="10"/>
<path d="M55.2801 15.1665H54.5101V9.02984H52.8301V8.1665H56.9501V9.02984H55.2701V15.1665H55.2801Z" fill="white" stroke="white" stroke-width="0.2" stroke-miterlimit="10"/>
<path d="M59.9399 15.1665V8.1665H60.71V15.1665H59.9399Z" fill="white" stroke="white" stroke-width="0.2" stroke-miterlimit="10"/>
<path d="M64.1302 15.1665H63.3602V9.02984H61.6802V8.1665H65.8002V9.02984H64.1202V15.1665H64.1302Z" fill="white" stroke="white" stroke-width="0.2" stroke-miterlimit="10"/>
<path d="M73.6101 14.2566C73.0201 14.9683 72.2901 15.3183 71.4101 15.3183C70.5301 15.3183 69.8001 14.9683 69.2101 14.2566C68.6201 13.5449 68.3301 12.6816 68.3301 11.6666C68.3301 10.6516 68.6201 9.77658 69.2101 9.07657C69.8001 8.3649 70.5301 8.01489 71.4101 8.01489C72.2801 8.01489 73.0101 8.3649 73.6101 9.07657C74.2001 9.78824 74.5001 10.6516 74.5001 11.6666C74.4901 12.6933 74.2001 13.5566 73.6101 14.2566ZM69.7801 13.6733C70.2201 14.1983 70.7701 14.455 71.4101 14.455C72.0501 14.455 72.6001 14.1983 73.0401 13.6733C73.4801 13.1483 73.7101 12.4833 73.7101 11.6666C73.7101 10.8499 73.4901 10.1849 73.0401 9.65991C72.6001 9.1349 72.0501 8.87823 71.4101 8.87823C70.7701 8.87823 70.2201 9.1349 69.7801 9.65991C69.3401 10.1849 69.1101 10.8499 69.1101 11.6666C69.1101 12.4833 69.3401 13.1483 69.7801 13.6733Z" fill="white" stroke="white" stroke-width="0.2" stroke-miterlimit="10"/>
<path d="M75.5801 15.1665V8.1665H76.5201L79.4401 13.6148H79.4701L79.4401 12.2615V8.1665H80.2101V15.1665H79.4101L76.3601 9.4615H76.3301L76.3601 10.8148V15.1665H75.5801Z" fill="white" stroke="white" stroke-width="0.2" stroke-miterlimit="10"/>
<path d="M68.14 25.375C65.79 25.375 63.87 27.4633 63.87 30.3333C63.87 33.1917 65.79 35.2917 68.14 35.2917C70.49 35.2917 72.41 33.1917 72.41 30.3333C72.41 27.4633 70.49 25.375 68.14 25.375ZM68.14 33.3433C66.85 33.3433 65.74 32.1066 65.74 30.3333C65.74 28.5483 66.85 27.3233 68.14 27.3233C69.43 27.3233 70.54 28.5483 70.54 30.3333C70.54 32.1066 69.42 33.3433 68.14 33.3433ZM58.82 25.375C56.47 25.375 54.55 27.4633 54.55 30.3333C54.55 33.1917 56.47 35.2917 58.82 35.2917C61.17 35.2917 63.09 33.1917 63.09 30.3333C63.09 27.4633 61.17 25.375 58.82 25.375ZM58.82 33.3433C57.53 33.3433 56.42 32.1066 56.42 30.3333C56.42 28.5483 57.53 27.3233 58.82 27.3233C60.11 27.3233 61.22 28.5483 61.22 30.3333C61.22 32.1066 60.11 33.3433 58.82 33.3433ZM47.74 26.9033V29.0033H52.06C51.93 30.1816 51.59 31.0566 51.08 31.6516C50.45 32.3866 49.47 33.1917 47.75 33.1917C45.09 33.1917 43.01 30.695 43.01 27.5916C43.01 24.4883 45.09 21.9916 47.75 21.9916C49.18 21.9916 50.23 22.6449 51 23.4966L52.27 22.0149C51.19 20.8133 49.76 19.8916 47.74 19.8916C44.1 19.8916 41.04 23.3449 41.04 27.6033C41.04 31.85 44.1 35.315 47.74 35.315C49.71 35.315 51.19 34.5683 52.35 33.1566C53.54 31.7683 53.91 29.8083 53.91 28.2333C53.91 27.7433 53.88 27.2883 53.81 26.915H47.74V26.9033ZM93.05 28.5366C92.7 27.4283 91.62 25.375 89.41 25.375C87.22 25.375 85.4 27.3816 85.4 30.3333C85.4 33.11 87.2 35.2917 89.62 35.2917C91.57 35.2917 92.7 33.9033 93.16 33.0983L91.71 31.9666C91.23 32.795 90.57 33.3433 89.62 33.3433C88.67 33.3433 87.99 32.83 87.56 31.8383L93.25 29.0966L93.05 28.5366ZM87.25 30.1933C87.2 28.28 88.52 27.3 89.47 27.3C90.21 27.3 90.84 27.7316 91.05 28.35L87.25 30.1933ZM82.63 35H84.5V20.4166H82.63V35ZM79.57 26.4833H79.5C79.08 25.9 78.28 25.375 77.26 25.375C75.13 25.375 73.18 27.5566 73.18 30.3566C73.18 33.1333 75.13 35.3033 77.26 35.3033C78.27 35.3033 79.08 34.7783 79.5 34.1717H79.56V34.8833C79.56 36.785 78.69 37.8 77.29 37.8C76.15 37.8 75.44 36.8433 75.15 36.0383L73.52 36.8317C73.99 38.15 75.23 39.76 77.29 39.76C79.48 39.76 81.33 38.255 81.33 34.5917V25.6783H79.56V26.4833H79.57ZM77.42 33.3433C76.13 33.3433 75.05 32.0833 75.05 30.3566C75.05 28.6066 76.13 27.335 77.42 27.335C78.69 27.335 79.69 28.6183 79.69 30.3566C79.7 32.0833 78.7 33.3433 77.42 33.3433ZM101.81 20.4166H97.34V35H99.21V29.47H101.82C103.89 29.47 105.92 27.72 105.92 24.9433C105.92 22.1666 103.87 20.4166 101.81 20.4166ZM101.85 27.44H99.2V22.4349H101.85C103.25 22.4349 104.04 23.7883 104.04 24.9316C104.04 26.075 103.25 27.44 101.85 27.44ZM113.39 25.3516C112.04 25.3516 110.64 26.0516 110.06 27.58L111.72 28.385C112.07 27.58 112.73 27.3116 113.42 27.3116C114.38 27.3116 115.37 27.9883 115.38 29.19V29.3416C115.04 29.12 114.32 28.7816 113.43 28.7816C111.64 28.7816 109.83 29.925 109.83 32.06C109.83 34.0083 111.29 35.2683 112.93 35.2683C114.18 35.2683 114.88 34.615 115.31 33.845H115.37V34.9767H117.17V29.3883C117.18 26.7983 115.52 25.3516 113.39 25.3516ZM113.16 33.3433C112.55 33.3433 111.7 32.9817 111.7 32.1066C111.7 30.9866 112.76 30.555 113.68 30.555C114.5 30.555 114.89 30.765 115.38 31.045C115.24 32.3866 114.24 33.3433 113.16 33.3433ZM123.74 25.6666L121.6 31.99H121.54L119.32 25.6666H117.31L120.64 34.51L118.74 39.4217H120.69L125.82 25.6666H123.74ZM106.94 35H108.81V20.4166H106.94V35Z" fill="white"/>
<path d="M10.4395 8.79663C10.1495 9.1583 9.97949 9.7183 9.97949 10.43V36.2365C9.97949 36.9598 10.1495 37.5198 10.4395 37.8698L10.5095 37.9515L22.8995 23.5082V23.3332V23.1582L10.5095 8.71497L10.4395 8.79663Z" fill="url(#paint0_linear_7447_42)"/>
<path d="M27.0299 28.3265L22.8999 23.5083V23.3333V23.1583L27.0299 18.34L27.1199 18.3983L32.0099 21.6416C33.4099 22.5633 33.4099 24.0799 32.0099 25.0132L27.1199 28.2565L27.0299 28.3265Z" fill="url(#paint1_linear_7447_42)"/>
<path d="M27.1199 28.2566L22.8999 23.3333L10.4399 37.8699C10.8999 38.4415 11.6599 38.5115 12.5199 37.9399L27.1199 28.2566Z" fill="url(#paint2_linear_7447_42)"/>
<path d="M27.1197 18.4099L12.5097 8.72665C11.6497 8.15499 10.8897 8.22499 10.4297 8.79665L22.8997 23.3333L27.1197 18.4099Z" fill="url(#paint3_linear_7447_42)"/>
<path opacity="0.2" d="M27.0294 28.1516L12.5095 37.7765C11.6995 38.3132 10.9695 38.2782 10.5095 37.7882L10.4395 37.8699L10.5095 37.9515C10.9795 38.4415 11.6995 38.4765 12.5095 37.9399L27.1194 28.2566L27.0294 28.1516Z" fill="black"/>
<path opacity="0.12" d="M10.4395 37.7068C10.1495 37.3451 9.97949 36.7851 9.97949 36.0735V36.2485C9.97949 36.9718 10.1495 37.5318 10.4395 37.8818L10.5095 37.8001L10.4395 37.7068Z" fill="black"/>
<path opacity="0.12" d="M32.0095 24.85L27.0195 28.1517L27.1095 28.2567L31.9995 25.0133C32.6995 24.5466 33.0495 23.9399 33.0495 23.3333C32.9995 23.8816 32.6495 24.4299 32.0095 24.85Z" fill="black"/>
<path opacity="0.25" d="M12.5097 8.88911L32.0097 21.8158C32.6397 22.2358 32.9998 22.7725 33.0598 23.3325C33.0598 22.7258 32.7097 22.1075 32.0097 21.6525L12.5097 8.72578C11.1097 7.80411 9.96973 8.57411 9.96973 10.4408V10.6158C9.96973 8.73745 11.1197 7.96745 12.5097 8.88911Z" fill="white"/>
<defs>
<linearGradient id="paint0_linear_7447_42" x1="21.7992" y1="10.1613" x2="2.45019" y2="26.7463" gradientUnits="userSpaceOnUse">
<stop stop-color="#00A0FF"/>
<stop offset="0.00657445" stop-color="#00A1FF"/>
<stop offset="0.2601" stop-color="#00BEFF"/>
<stop offset="0.5122" stop-color="#00D2FF"/>
<stop offset="0.7604" stop-color="#00DFFF"/>
<stop offset="1" stop-color="#00E3FF"/>
</linearGradient>
<linearGradient id="paint1_linear_7447_42" x1="33.8343" y1="23.3349" x2="9.63744" y2="23.3349" gradientUnits="userSpaceOnUse">
<stop stop-color="#FFE000"/>
<stop offset="0.4087" stop-color="#FFBD00"/>
<stop offset="0.7754" stop-color="#FFA500"/>
<stop offset="1" stop-color="#FF9C00"/>
</linearGradient>
<linearGradient id="paint2_linear_7447_42" x1="24.8269" y1="26.012" x2="-1.41195" y2="48.5026" gradientUnits="userSpaceOnUse">
<stop stop-color="#FF3A44"/>
<stop offset="1" stop-color="#C31162"/>
</linearGradient>
<linearGradient id="paint3_linear_7447_42" x1="7.29699" y1="0.205588" x2="19.0138" y2="10.2485" gradientUnits="userSpaceOnUse">
<stop stop-color="#32A071"/>
<stop offset="0.0685" stop-color="#2DA771"/>
<stop offset="0.4762" stop-color="#15CF74"/>
<stop offset="0.8009" stop-color="#06E775"/>
<stop offset="1" stop-color="#00F076"/>
</linearGradient>
</defs>
</svg>
